<svg width="28" height="28" viewBox="0 0 28 28" fill="none" xmlns="http://www.w3.org/2000/svg">
<path d="M17 14H26M17 20H26M17 26H26M2 3.5C2 3.10218 2.15804 2.72064 2.43934 2.43934C2.72064 2.15804 3.10218 2 3.5 2H24.5C24.8978 2 25.2794 2.15804 25.5607 2.43934C25.842 2.72064 26 3.10218 26 3.5V6.5C26 6.89782 25.842 7.27936 25.5607 7.56066C25.2794 7.84196 24.8978 8 24.5 8H3.5C3.10218 8 2.72064 7.84196 2.43934 7.56066C2.15804 7.27936 2 6.89782 2 6.5V3.5ZM2 15.5C2 15.1022 2.15804 14.7206 2.43934 14.4393C2.72064 14.158 3.10218 14 3.5 14H9.5C9.89782 14 10.2794 14.158 10.5607 14.4393C10.842 14.7206 11 15.1022 11 15.5V24.5C11 24.8978 10.842 25.2794 10.5607 25.5607C10.2794 25.842 9.89782 26 9.5 26H3.5C3.10218 26 2.72064 25.842 2.43934 25.5607C2.15804 25.2794 2 24.8978 2 24.5V15.5Z" stroke="#F7F7FB" stroke-width="3" stroke-linecap="round" stroke-linejoin="round"/>
</svg>
