<svg width="25" height="23" viewBox="0 0 25 23" fill="none" xmlns="http://www.w3.org/2000/svg">
<path d="M25 3.08824C24.0798 3.54118 23.088 3.83882 22.0602 3.98118C23.1119 3.29529 23.9245 2.20824 24.3069 0.901176C23.315 1.54824 22.2156 2.00118 21.0564 2.26C20.1123 1.14706 18.7859 0.5 17.2801 0.5C14.4718 0.5 12.1773 2.98471 12.1773 6.05176C12.1773 6.49177 12.2251 6.91882 12.3088 7.32C8.05449 7.08706 4.26625 4.87412 1.74474 1.52235C1.30258 2.33765 1.05163 3.29529 1.05163 4.30471C1.05163 6.23294 1.9479 7.94118 3.33413 8.91177C2.48566 8.91177 1.69694 8.65294 1.00382 8.26471V8.30353C1.00382 10.9953 2.77247 13.2471 5.11472 13.7518C4.36272 13.9746 3.57325 14.0056 2.80832 13.8424C3.1329 14.9456 3.76857 15.9109 4.62598 16.6026C5.48339 17.2944 6.51942 17.6777 7.58843 17.6988C5.77633 19.2523 3.53011 20.0921 1.21893 20.08C0.81262 20.08 0.40631 20.0541 0 20.0024C2.27055 21.5812 4.97132 22.5 7.86329 22.5C17.2801 22.5 22.4546 14.0365 22.4546 6.69882C22.4546 6.45294 22.4546 6.22 22.4426 5.97412C23.4465 5.19765 24.3069 4.21412 25 3.08824Z" fill="white"/>
</svg>
